<svg id="Layer_1" data-name="Layer 1" xmlns="http://www.w3.org/2000/svg" width="191.691" height="59.683" viewBox="0 0 191.691 59.683">
  <defs>
    <style>
      .cls-1 {
        fill: none;
        stroke: #000;
        stroke-miterlimit: 10;
      }
    </style>
  </defs>
  <g>
    <path class="cls-1" d="M529.681,411.436c0,1.512.215,3.024-.432,4.537a3.5,3.5,0,0,1-3.673,2.16c-1.944-.432-2.376-3.24-2.376-5.4,0-12.1-.216-32.115-.216-44.14a2.742,2.742,0,0,0-.216-1.3,3.451,3.451,0,0,0-2.16-1.08,12.152,12.152,0,0,0-5.545.864,2.147,2.147,0,0,1-1.08.864c-1.08.432-3.24.648-4.32-1.08-1.3-1.944.216-3.888,1.08-4.536a15.729,15.729,0,0,1,8.353-2.161c4.968,0,9.937,1.513,14.689,2.593a26.134,26.134,0,0,0,8.137.864,11,11,0,0,0,7.56-3.24,2.628,2.628,0,0,1,3.673.432,3.616,3.616,0,0,1,0,3.888,6.474,6.474,0,0,1-3.24,2.592c-3.889,1.944-8.209,2.161-12.457,1.728-2.593-.215-5.185-.864-7.993-1.3C529.249,379.753,529.249,399.555,529.681,411.436Zm31.755,6.265a3.321,3.321,0,0,1-4.753-2.377c-.36-5.112-.576-13.321-.5-18.5.216-.648-.864-.648-1.3-.432a20.656,20.656,0,0,0-6.769,3.672c-1.872,1.728-3.6,4.1-3.528,6.7a78.111,78.111,0,0,1,.216,8.208,3.552,3.552,0,0,1-1.656,3.169c-1.44.864-3.457-.216-4.32-1.512-.937-1.657-1.3-7.921-1.3-9.649-.432-8.641-.72-19.37-1.152-27.795,0-1.3-.072-3.024,1.008-3.816,1.224-1.08,3.457-.216,4.321,1.08a9.519,9.519,0,0,1,1.224,4.9c.072,4.105.216,10.37.576,14.4a21.743,21.743,0,0,1,10.8-5.977,1.65,1.65,0,0,0,1.08-.432,2.3,2.3,0,0,0,.36-1.3,62.884,62.884,0,0,0,.216-9.073c-.288-2.16-.072-4.68,1.8-5.328a3.185,3.185,0,0,1,3.529,1.728,8.256,8.256,0,0,1,.719,4.033c.288,10.584.793,22.393,1.009,32.978C563.091,414.316,562.948,416.621,561.436,417.7Z" transform="translate(-508.659 -359.31)"/>
    <path class="cls-1" d="M572.878,375.649c.217,7.777,0,9.937.217,17.642a1.584,1.584,0,0,0,.432,1.3.79.79,0,0,0,.648.217,46.171,46.171,0,0,0,5.328-.217c1.944,0,3.672-.215,4.969.865s1.944,3.24.863,4.536a4.735,4.735,0,0,1-3.671,1.512c-2.809,0-5.617.216-8.569.216,0,3.241.216,6.841,0,9.649h10.729a19.617,19.617,0,0,1,4.968.648,2.844,2.844,0,0,1,1.944,3.24,3.524,3.524,0,0,1-2.376,2.809,11.96,11.96,0,0,1-3.888.432h-9.433a14.276,14.276,0,0,1-5.185-.648c-1.728-.648-3.24-1.728-3.672-3.457a10.516,10.516,0,0,1-.216-2.592V372.625a5.5,5.5,0,0,1,.648-3.241c1.08-1.511,3.24-1.728,5.184-1.728h11.161c2.161,0,4.969.432,5.617,2.593a3.774,3.774,0,0,1-2.16,4.1,9.59,9.59,0,0,1-4.969.432c-2.808-.216-5.184-.216-7.92-.432C573.1,374.353,572.878,375,572.878,375.649Z" transform="translate(-508.659 -359.31)"/>
    <path class="cls-1" d="M621.549,375.649c.217,7.777,0,9.937.217,17.642a1.584,1.584,0,0,0,.432,1.3.79.79,0,0,0,.648.217,46.171,46.171,0,0,0,5.328-.217c1.944,0,3.672-.215,4.969.865s1.943,3.24.863,4.536a4.736,4.736,0,0,1-3.672,1.512c-2.808,0-5.616.216-8.568.216,0,3.241.215,6.841,0,9.649H632.5a19.617,19.617,0,0,1,4.968.648,2.844,2.844,0,0,1,1.944,3.24,3.524,3.524,0,0,1-2.376,2.809,11.963,11.963,0,0,1-3.888.432h-9.434a14.268,14.268,0,0,1-5.184-.648c-1.728-.648-3.24-1.728-3.672-3.457a10.516,10.516,0,0,1-.216-2.592V372.625a5.5,5.5,0,0,1,.648-3.241c1.08-1.511,3.24-1.728,5.184-1.728H631.63c2.161,0,4.969.432,5.617,2.593a3.774,3.774,0,0,1-2.161,4.1,9.585,9.585,0,0,1-4.968.432c-2.808-.216-5.184-.216-7.92-.432C621.766,374.353,621.549,375,621.549,375.649Z" transform="translate(-508.659 -359.31)"/>
    <path class="cls-1" d="M648.334,416.548a19.736,19.736,0,0,1-8.641-12.025c-2.088-7.56-1.008-15.481.864-23.042a30.06,30.06,0,0,1,1.3-4.1,24.848,24.848,0,0,1,3.24-5.76,13.211,13.211,0,0,1,3.672-3.241,10.41,10.41,0,0,1,9.433-.647,13.085,13.085,0,0,1,6.912,6.7,5.827,5.827,0,0,1,.217,5.328c-1.08,1.513-3.889,1.945-4.537.216-1.08-2.376-2.376-4.968-4.68-5.544-1.944-.648-4.105.432-5.4,1.656a15.079,15.079,0,0,0-2.808,5.185,40.037,40.037,0,0,0-1.944,15.913c.432,4.968,2.16,10.585,6.48,12.961a5.592,5.592,0,0,0,4.105.648,5.348,5.348,0,0,0,2.52-2.376c1.08-1.728,1.512-3.672,1.944-7.129.216,0,.216-.864,0-1.08a1.682,1.682,0,0,0-1.512-.648,30.788,30.788,0,0,1-4.464,0c-1.729-.216-3.457-1.512-3.457-3.24a3.386,3.386,0,0,1,2.16-2.953,10.16,10.16,0,0,1,3.673-.863c1.44-.217,2.736-.217,4.248-.433a4.919,4.919,0,0,1,3.888.648,4.136,4.136,0,0,1,1.728,2.521c.649,1.944.433,4.1.433,6.48-.216,3.241-1.3,9.073-5.4,13.537C658.847,419.141,652.654,419.141,648.334,416.548Z" transform="translate(-508.659 -359.31)"/>
    <path class="cls-1" d="M680.446,416.548a19.732,19.732,0,0,1-8.641-12.025c-2.088-7.56-1.008-15.481.864-23.042a30.054,30.054,0,0,1,1.3-4.1,24.887,24.887,0,0,1,3.241-5.76,13.211,13.211,0,0,1,3.672-3.241,10.41,10.41,0,0,1,9.433-.647,13.085,13.085,0,0,1,6.912,6.7,5.826,5.826,0,0,1,.216,5.328c-1.08,1.513-3.888,1.945-4.536.216-1.08-2.376-2.376-4.968-4.68-5.544-1.945-.648-4.1.432-5.4,1.656a15.079,15.079,0,0,0-2.808,5.185,40.037,40.037,0,0,0-1.944,15.913c.431,4.968,2.16,10.585,6.48,12.961a5.591,5.591,0,0,0,4.105.648,5.348,5.348,0,0,0,2.52-2.376c1.08-1.728,1.512-3.672,1.944-7.129.216,0,.216-.864,0-1.08a1.682,1.682,0,0,0-1.512-.648,30.788,30.788,0,0,1-4.464,0c-1.729-.216-3.457-1.512-3.457-3.24a3.386,3.386,0,0,1,2.16-2.953,10.16,10.16,0,0,1,3.673-.863c1.44-.217,2.736-.217,4.248-.433a4.919,4.919,0,0,1,3.888.648,4.14,4.14,0,0,1,1.728,2.521c.649,1.944.432,4.1.432,6.48-.215,3.241-1.3,9.073-5.4,13.537C690.959,419.141,684.766,419.141,680.446,416.548Z" transform="translate(-508.659 -359.31)"/>
  </g>
</svg>
